<svg width="56" height="59" viewBox="0 0 56 59" fill="none" xmlns="http://www.w3.org/2000/svg">
<path d="M36.7221 48.2944L5.97461 17.5469L0.000465749 23.521L30.748 54.2685L36.7221 48.2944Z" fill="#70D6FF"/>
<path d="M53.9272 31.0893L23.1797 0.341797L17.2055 6.31594L47.9531 37.0635L53.9272 31.0893Z" fill="#99F7AB"/>
<path d="M45.3237 39.6919L14.5762 8.94434L8.60202 14.9185L39.3495 45.666L45.3237 39.6919Z" fill="#FFD670"/>
<g opacity="0.5">
<path d="M37.8881 52.0434L7.14062 21.2959L1.16648 27.27L31.914 58.0176L37.8881 52.0434Z" fill="#70D6FF"/>
</g>
<g opacity="0.5">
<path d="M55.0932 34.8374L24.3457 4.08984L18.3716 10.064L49.1191 40.8115L55.0932 34.8374Z" fill="#99F7AB"/>
</g>
<g opacity="0.5">
<path d="M46.4897 43.4409L15.7422 12.6934L9.76804 18.6675L40.5156 49.415L46.4897 43.4409Z" fill="#FFD670"/>
</g>
</svg>
