<svg width="256" height="67" viewBox="0 0 256 67" fill="none" xmlns="http://www.w3.org/2000/svg">
<path d="M36.7221 52.2944L5.97461 21.5469L0.000465749 27.521L30.748 58.2685L36.7221 52.2944Z" fill="#70D6FF"/>
<path d="M53.9272 35.0893L23.1797 4.3418L17.2055 10.3159L47.9531 41.0635L53.9272 35.0893Z" fill="#99F7AB"/>
<path d="M45.3237 43.6919L14.5762 12.9443L8.60202 18.9185L39.3495 49.666L45.3237 43.6919Z" fill="#FFD670"/>
<g opacity="0.5">
<path d="M37.8881 56.0434L7.14062 25.2959L1.16648 31.27L31.914 62.0176L37.8881 56.0434Z" fill="#70D6FF"/>
</g>
<g opacity="0.5">
<path d="M55.0932 38.8374L24.3457 8.08984L18.3716 14.064L49.1191 44.8115L55.0932 38.8374Z" fill="#99F7AB"/>
</g>
<g opacity="0.5">
<path d="M46.4897 47.4409L15.7422 16.6934L9.76804 22.6675L40.5156 53.415L46.4897 47.4409Z" fill="#FFD670"/>
</g>
<path d="M95.1536 50.4318H85.1346V11.4125H72.2578V3.05176H108.027V11.4125H95.1536V50.4318V50.4318Z" fill="#343A40"/>
<path d="M124.084 13.4717C128.948 13.4717 132.675 14.5246 135.265 16.623C137.852 18.7251 139.147 21.9425 139.147 26.2788V50.4329H132.246L130.32 45.5243H130.056C128.508 47.4723 126.872 48.8884 125.144 49.7725C123.42 50.6567 121.05 51.1006 118.045 51.1006C114.817 51.1006 112.139 50.1614 110.014 48.2794C107.89 46.4011 106.83 43.5139 106.83 39.6215C106.83 35.7731 108.18 32.93 110.877 31.0957C113.573 29.2614 117.623 28.2525 123.02 28.0764L129.322 27.8783V26.2861C129.322 24.3858 128.823 22.9917 127.829 22.1039C126.835 21.2198 125.452 20.7759 123.684 20.7759C121.915 20.7759 120.187 21.0327 118.507 21.5389C116.827 22.0489 115.143 22.6799 113.463 23.4319L110.213 16.7294C112.161 15.7132 114.314 14.9171 116.684 14.3411C119.05 13.7615 121.519 13.4717 124.084 13.4717ZM125.478 33.7774C122.293 33.8655 120.081 34.4414 118.841 35.5017C117.601 36.5619 116.985 37.9559 116.985 39.6839C116.985 41.188 117.425 42.2629 118.313 42.9012C119.197 43.5432 120.345 43.8624 121.765 43.8624C123.889 43.8624 125.679 43.2314 127.139 41.9694C128.6 40.7074 129.33 38.9281 129.33 36.6279V33.6417L125.478 33.7774Z" fill="#343A40"/>
<path d="M174.582 39.6833C174.582 43.3555 173.287 46.1767 170.701 48.1431C168.114 50.1131 164.251 51.0963 159.123 51.0963C156.602 51.0963 154.434 50.9312 152.618 50.5974C150.802 50.2672 148.99 49.7242 147.178 48.9722V40.8095C149.122 41.6936 151.224 42.4237 153.48 42.9997C155.736 43.5756 157.729 43.8618 159.453 43.8618C161.401 43.8618 162.78 43.5756 163.602 42.9997C164.42 42.4237 164.831 41.6716 164.831 40.7435C164.831 40.1235 164.666 39.5732 164.332 39.0853C164.002 38.5973 163.279 38.0471 162.175 37.4271C161.067 36.8071 159.343 36.011 156.998 35.0388C154.742 34.0666 152.886 33.1054 151.426 32.1516C149.966 31.2014 148.88 30.0495 148.175 28.6994C147.467 27.3494 147.115 25.6582 147.115 23.6221C147.115 20.2617 148.421 17.7377 151.03 16.0574C153.638 14.3772 157.112 13.5371 161.448 13.5371C163.705 13.5371 165.851 13.7572 167.887 14.2011C169.919 14.645 172.021 15.3751 174.19 16.3913L171.203 23.49C169.435 22.738 167.751 22.107 166.159 21.597C164.567 21.0908 162.953 20.834 161.316 20.834C158.396 20.834 156.936 21.63 156.936 23.2222C156.936 23.7982 157.123 24.3155 157.501 24.7814C157.875 25.2473 158.605 25.7426 159.691 26.2745C160.773 26.8065 162.38 27.5145 164.501 28.3986C166.581 29.2387 168.371 30.1119 169.875 31.018C171.379 31.9242 172.539 33.0541 173.36 34.4041C174.171 35.7579 174.582 37.5151 174.582 39.6833Z" fill="#343A40"/>
<path d="M192.166 22.5619C192.166 23.934 192.111 25.295 192.001 26.6414C191.891 27.9915 191.77 29.3525 191.634 30.7209H191.766C192.43 29.7927 193.116 28.8536 193.824 27.8997C194.532 26.9496 195.284 26.0544 196.081 25.2107L206.232 14.1938H217.381L202.981 29.9211L218.243 50.425H206.83L196.411 35.7616L192.163 39.144V50.425H182.279V0H192.166V22.5619Z" fill="#343A40"/>
<path d="M218.246 14.2012H229.061L235.896 34.5729C236.248 35.5451 236.516 36.554 236.692 37.5922C236.868 38.6304 237 39.7273 237.088 40.8756H237.286C237.418 39.7273 237.605 38.6304 237.851 37.5922C238.093 36.554 238.372 35.5451 238.68 34.5729L245.383 14.2012H256L240.672 55.0768C239.3 58.8371 237.297 61.6582 234.667 63.5366C232.033 65.4149 228.991 66.3577 225.543 66.3577C224.435 66.3577 223.474 66.3027 222.656 66.1926C221.838 66.0826 221.119 65.9615 220.499 65.8295V58.0006C220.987 58.0887 221.57 58.1767 222.256 58.2648C222.942 58.3528 223.661 58.3969 224.413 58.3969C226.493 58.3969 228.14 57.7659 229.358 56.5039C230.576 55.2419 231.471 53.7267 232.047 51.9585L232.645 50.1682L218.246 14.2012Z" fill="#343A40"/>
</svg>
